inDegrees=no
num_controls=7
num_derivatives=13
num_iterations=90
num_multipliers=7
num_parameters=0
num_slacks=7
num_states=26
objective=0.446646
objective_accelerations=0.062608
objective_balance=0.002665
objective_effort=0.021880
objective_height=0.352935
objective_ligament=0.006558
solver_duration=1345.281710
status=Solve_Succeeded
success=true
DataType=double
version=3
OpenSimVersion=4.5
endheader
time	/jointset/ground_pelvis/pelvis_tilt/value	/jointset/ground_pelvis/pelvis_tx/value	/jointset/ground_pelvis/pelvis_ty/value	/jointset/hip_l/hip_flexion_l/value	/jointset/hip_l/hip_adduction_l/value	/jointset/hip_l/hip_rotation_l/value	/jointset/back/lumbar_extension/value	/jointset/patellofemoral_l/patellar_flexion_l/value	/jointset/knee_l/knee_flexion_l/value	/jointset/knee_l/knee_adduction_l/value	/jointset/knee_l/knee_rotation_l/value	/jointset/ankle_l/ankle_angle_l/value	/jointset/subtalar_l/subtalar_angle_l/value	/jointset/ground_pelvis/pelvis_tilt/speed	/jointset/ground_pelvis/pelvis_tx/speed	/jointset/ground_pelvis/pelvis_ty/speed	/jointset/hip_l/hip_flexion_l/speed	/jointset/hip_l/hip_adduction_l/speed	/jointset/hip_l/hip_rotation_l/speed	/jointset/back/lumbar_extension/speed	/jointset/patellofemoral_l/patellar_flexion_l/speed	/jointset/knee_l/knee_flexion_l/speed	/jointset/knee_l/knee_adduction_l/speed	/jointset/knee_l/knee_rotation_l/speed	/jointset/ankle_l/ankle_angle_l/speed	/jointset/subtalar_l/subtalar_angle_l/speed	/forceset/tau_hip_flexion_l	/forceset/tau_hip_adduction_l	/forceset/tau_hip_rotation_l	/forceset/tau_knee_flexion_l	/forceset/tau_ankle_angle_l	/forceset/tau_subtalar_angle_l	/forceset/tau_lumbar_extension	lambda_cid13_p0	lambda_cid13_p1	lambda_cid13_p2	lambda_cid13_p3	lambda_cid13_p4	lambda_cid13_p5	lambda_cid14_p0	/jointset/ground_pelvis/pelvis_tilt/accel	/jointset/ground_pelvis/pelvis_tx/accel	/jointset/ground_pelvis/pelvis_ty/accel	/jointset/hip_l/hip_flexion_l/accel	/jointset/hip_l/hip_adduction_l/accel	/jointset/hip_l/hip_rotation_l/accel	/jointset/back/lumbar_extension/accel	/jointset/patellofemoral_l/patellar_flexion_l/accel	/jointset/knee_l/knee_flexion_l/accel	/jointset/knee_l/knee_adduction_l/accel	/jointset/knee_l/knee_rotation_l/accel	/jointset/ankle_l/ankle_angle_l/accel	/jointset/subtalar_l/subtalar_angle_l/accel	gamma_cid13_p0	gamma_cid13_p1	gamma_cid13_p2	gamma_cid13_p3	gamma_cid13_p4	gamma_cid13_p5	gamma_cid14_p0
1.5	-0.3047189760331369	0.005643795334330191	0.7601074715317839	1.054158261733392	-0.410723176161353	-0.2837833986790226	-0.2213904111454519	0.88084297056316	0.8808429705631957	0.01242447042859324	-0.1689741964850723	0.2197769036779203	0.06832576320973462	0.4971147181827258	0.2081932126724276	0.5712753971894926	-2.330682067779565	0.2027295462500295	-0.5034553713242046	0.3241367214288309	-2.245262169489692	-2.245262169489429	-0.5295760775093631	0.06834896694439732	-0.6311046186319215	-0.1485294251095998	-0.1439254790392876	0.05950957071257734	-0.02014606709273749	-0.2220463804148204	0.02070480833799062	0.02985589791060179	0.1475098693267182	-24.35467238162363	-9.355941390014472	1.902531461513242	-5.289849011539778	-513.5240584739815	-44.51260226191786	-21.66976668126891	0.617470209105087	0.6338866570786363	-0.689064110003017	-1.1358209016478	0.3157153666242786	-0.3870709249942938	1.390950897341039	-1.304080029344041	-1.304080029344034	-0.1719068769229717	0.6073115659315961	-0.7782441541401239	-0.009799632184444955	4.17662327644585e-07	4.050282938281604e-06	1.846781904927156e-06	9.223637178401716e-07	1.107347359660005e-07	1.279154696672995e-06	4.812540594053158e-07
1.51	-0.2997170931621261	0.007757174251576714	0.7657845854611907	1.030796653071796	-0.4086812760718178	-0.2888425498806964	-0.2180806149246717	0.8583278306417663	0.8583278306417809	0.007122609107381414	-0.1682657740334307	0.2134277468963903	0.06683903696837798	0.5031820513759874	0.2144495286719647	0.564023898438459	-2.341317493629477	0.205634852848868	-0.5083156001295664	0.3377791775427926	-2.257449710534059	-2.257449710533965	-0.5307382883056162	0.07333964432398586	-0.6386181633973002	-0.1487640456165731	-0.1388992192895168	0.05804974868015907	-0.01924058134984912	-0.2182346144032682	0.02177395131361717	0.02855861519616336	0.1432399059514761	-23.85981297622704	-9.061545336832763	2.063905343543121	-5.254237334752065	-509.4074993587638	-44.58668620707613	-22.75330739881939	0.5893196569336886	0.6167452563690199	-0.7617025059510719	-0.9791604901412694	0.2748603231517134	-0.5263809677645639	1.344391190839193	-1.128778019104662	-1.128778019130068	-0.07893310847777538	0.4459515812457823	-0.721359031702699	-0.02347923000850519	4.237946228838984e-07	4.259803513045597e-06	2.017402637310031e-06	9.653568253064996e-07	8.315595921081267e-08	1.272073395905547e-06	5.019277210432697e-07
1.52	-0.294656946002686	0.009932164565814271	0.7713854824534276	1.007338338739002	-0.4066109385129713	-0.2939484797923221	-0.2146356944982681	0.8357002779344939	0.8357002779345102	0.00181101469276598	-0.1675072436565405	0.2070067647884115	0.06535132732794002	0.5087675758691373	0.2205154920706345	0.5560320097555376	-2.350023202018513	0.2084170401132478	-0.5128111133132307	0.3511615625533721	-2.267744726663292	-2.267744726663367	-0.5315226962019315	0.07837055199450625	-0.6454696839213189	-0.1487261049257394	-0.1338729595397744	0.05658992664768098	-0.01833509560675788	-0.2144228483917068	0.02284309428922781	0.02726133248163309	0.1389699425762279	-23.36701488125687	-8.772219083658486	2.232288518306971	-5.235387493672553	-505.332143663975	-44.68504760105409	-23.83535798672341	0.5211084690828613	0.595816136905102	-0.8371420963806196	-0.7498774094724732	0.2910914997325475	-0.3141278006547832	1.338936676664655	-0.9255750463172412	-0.925575046317241	-0.09634629693536888	0.6153576241180071	-0.6458393058682759	0.04471260737692351	4.189624348111527e-07	4.387547480721873e-06	2.177447295632101e-06	9.873935212603214e-07	5.530043307861911e-08	1.232153799036334e-06	5.100678787764548e-07
1.53	-0.2895434374035721	0.01216671114535036	0.7769028492036154	0.9838028280110014	-0.404513190423228	-0.2990977932414566	-0.2110584225586083	0.8129792618415089	0.8129792618414294	-0.003506168970679833	-0.1666983156276604	0.2005205416741876	0.06386559966248036	0.5138488039961916	0.226345935562863	0.5473264762075707	-2.35673787155454	0.2111183131989338	-0.5169820645962045	0.3642294045172237	-2.276134596101825	-2.276134596101737	-0.5318557672973687	0.08341995518459289	-0.6516708670415617	-0.1483715393456653	-0.1289494511298219	0.05492828004776464	-0.01757499102014241	-0.2103665281604529	0.02320780726288183	0.02612245718711674	0.1347263404102616	-23.10945970083032	-8.528858954448779	2.428972599383754	-4.958789981523289	-501.4500344368847	-44.95501367609309	-24.91291998978981	0.4887436991251776	0.5696726223330199	-0.9044861790162201	-0.5811955057833118	0.2566966574894716	-0.4579687849126775	1.281194827119627	-0.7472089417039812	-0.7472089416793631	0.007754097737614997	0.4508948030582877	-0.5913786817581237	0.03701070556905071	4.024804832193444e-07	4.42840380336745e-06	2.326254875264566e-06	9.871640299821056e-07	2.715086073335696e-08	1.157343512558997e-06	5.048911886108232e-07
1.54	-0.2843816937802694	0.0144581649931991	0.7823297151793213	0.9602103838316141	-0.402389019313733	-0.3042866942019825	-0.2073523748251344	0.7901840438443167	0.7901840438441544	-0.008824775022335168	-0.1658386609395557	0.193975482555429	0.06238465408727002	0.5184145807075915	0.2318969457331664	0.5379318548591595	-2.361409892295179	0.2137016440647482	-0.5207286155909416	0.3769167213160429	-2.282585107503661	-2.282585107503408	-0.5318071738493949	0.08851588383885069	-0.6572368848280391	-0.1477696868757387	-0.124025942719885	0.05326663344780318	-0.01681488643344455	-0.2063102079291974	0.02357252023652287	0.02498358189253239	0.1304827382442982	-22.85313362112473	-8.288798135915942	2.630195009702729	-4.698855244126795	-497.5965760632952	-45.23651660424904	-25.98418733693978	0.418018185952077	0.5399294725200074	-0.9749596564695145	-0.3413476503947409	0.267503055758228	-0.2292477430074028	1.262831643658206	-0.5377034389777101	-0.5377034389777038	-0.02001338825315673	0.6246627169522743	-0.5188062391152678	0.09416998534740198	4.024568498199446e-07	4.602596274608777e-06	2.514804187712715e-06	1.012429581826676e-06	4.697005544040931e-10	1.108085348612481e-06	5.182853772290038e-07
1.55	-0.2791769316166606	0.01680374432851173	0.7876593308086741	0.9365813043069244	-0.4002395903555152	-0.30951193561773	-0.2035215502876774	0.7673339996944686	0.7673339996944801	-0.01414056938748649	-0.1649287140684951	0.1873780760440225	0.06091107879809488	0.5224389841171552	0.2371718343926369	0.5278882719560238	-2.364060820648391	0.2161665884204926	-0.5242434169792033	0.3891746184667349	-2.287091497642455	-2.287091497642338	-0.5312996475494414	0.09347545287689958	-0.66212444249512	-0.146893595498988	-0.1187915898959179	0.05150282753290704	-0.01618616695316049	-0.2030998543001475	0.02505467785340742	0.02350718970709008	0.1260213121235189	-22.27451333941175	-7.933431760276766	2.784305555851024	-4.656528077364359	-494.0856110389141	-45.2758744452101	-27.04831991910812	0.3797158697580034	0.5144250070569522	-1.034515146070942	-0.1753033691011507	0.2323829109970496	-0.4009823285898708	1.196233594560947	-0.3573875589354087	-0.3573875589558445	0.09489016655320544	0.4323913219408344	-0.4554266577739456	0.09093143403763121	4.213960612944056e-07	4.930415177927808e-06	2.749142887970238e-06	1.067069857269237e-06	-2.451959343293164e-08	1.088267673668865e-06	5.530764479241842e-07
